<svg width="20" height="16" viewBox="0 0 20 16" fill="none" xmlns="http://www.w3.org/2000/svg">
<path d="M11 3H17L19 7M11 3V11M11 3V2C11 1.73478 10.8946 1.48043 10.7071 1.29289C10.5196 1.10536 10.2652 1 10 1H2C1.73478 1 1.48043 1.10536 1.29289 1.29289C1.10536 1.48043 1 1.73478 1 2V11H3M11 11H7M11 11H13M17 11H19V7M19 7H14M17.5 12.5C17.5 13.8807 16.3807 15 15 15C13.6193 15 12.5 13.8807 12.5 12.5C12.5 11.1193 13.6193 10 15 10C16.3807 10 17.5 11.1193 17.5 12.5ZM7.5 12.5C7.5 13.8807 6.38071 15 5 15C3.61929 15 2.5 13.8807 2.5 12.5C2.5 11.1193 3.61929 10 5 10C6.38071 10 7.5 11.1193 7.5 12.5Z" stroke="#383838" stroke-width="2" stroke-linecap="round" stroke-linejoin="round"/>
</svg>
