<svg width="20" height="19" viewBox="0 0 20 19" fill="none" xmlns="http://www.w3.org/2000/svg">
<path d="M9.08325 2.10395C9.43215 1.30322 10.5679 1.30322 10.9168 2.10395L12.6691 6.12569C12.817 6.46513 13.1404 6.69506 13.5096 6.72331L17.9717 7.06478C18.8714 7.13363 19.227 8.26485 18.5284 8.83602L15.1986 11.5587C14.8989 11.8038 14.7676 12.1997 14.8615 12.5753L15.8907 16.6938C16.1052 17.5522 15.1812 18.2458 14.4168 17.8002L10.5037 15.5187C10.1924 15.3372 9.80759 15.3372 9.49632 15.5187L5.58318 17.8002C4.8188 18.2458 3.89482 17.5522 4.10934 16.6938L5.13854 12.5753C5.23239 12.1997 5.10105 11.8038 4.80137 11.5587L1.47155 8.83602C0.773014 8.26485 1.12855 7.13363 2.02825 7.06478L6.49041 6.72331C6.8596 6.69506 7.18295 6.46513 7.33086 6.12569L9.08325 2.10395Z" stroke="white" stroke-width="2"/>
</svg>
