<svg width="16" height="20" viewBox="0 0 16 20" fill="none" xmlns="http://www.w3.org/2000/svg">
<path d="M7.99981 11C9.65666 11 10.9998 9.65685 10.9998 8C10.9998 6.34315 9.65666 5 7.99981 5C6.34295 5 4.99981 6.34315 4.99981 8C4.99981 9.65685 6.34295 11 7.99981 11Z" stroke="#383838" stroke-width="2" stroke-linecap="round" stroke-linejoin="round"/>
<path d="M13.7998 11.938H13.7888C14.5106 10.88 14.9284 9.64415 14.9964 8.36514C15.0645 7.08613 14.7804 5.81295 14.175 4.68425C13.5696 3.55554 12.6661 2.61458 11.5629 1.96382C10.4597 1.31306 9.19915 0.977446 7.91843 0.993533C6.63771 1.00962 5.38595 1.37679 4.29946 2.05505C3.21298 2.73332 2.33341 3.69668 1.75653 4.84024C1.17966 5.98379 0.927603 7.26371 1.0278 8.5406C1.128 9.8175 1.57662 11.0424 2.32481 12.082H2.30881L2.44981 12.253C2.54981 12.38 2.64981 12.504 2.74981 12.624L7.99981 19L13.1298 12.752C13.3228 12.5433 13.5031 12.3233 13.6698 12.093L13.7998 11.938Z" stroke="#383838" stroke-width="2" stroke-linecap="round" stroke-linejoin="round"/>
</svg>
