<svg width="72" height="72" viewBox="0 0 72 72" fill="none" xmlns="http://www.w3.org/2000/svg">
<g clip-path="url(#clip0_125_5541)">
<path d="M20.1315 20.4031H59.7476L70.7617 35.2164L9.09747 35.2201L20.1315 20.4031Z" fill="#2660AB"/>
<path d="M9.52911 35.4946L20.1364 20.3863H59.7955L70.3083 35.4946" stroke="black"/>
<path d="M70.2453 35.2201L39.9029 71.3767L9.60104 35.2202L70.2453 35.2201Z" fill="#26A9E0"/>
<path d="M20.2116 37.6123C33.1295 54.0341 29.4285 49.1673 34.268 55.3149" stroke="#0D0C22" stroke-width="1.24489" stroke-linecap="round"/>
<path d="M37.5521 58.8253L40.9034 62.9953" stroke="#0D0C22" stroke-width="1.24489" stroke-linecap="round"/>
<path d="M25.397 24.1647L19.7874 31.8926" stroke="#0D0C22" stroke-linecap="round"/>
<rect x="36.667" y="43.2541" width="7.53222" height="7.53222" rx="3.76611" fill="#F34A57" stroke="black" stroke-width="1.24489"/>
<path d="M10.3023 48.8373C11.4211 49.956 12.9919 50.5782 15.2708 51.0951C12.992 51.612 11.4211 52.2341 10.3023 53.3527C9.18376 54.4712 8.56169 56.0416 8.04526 58.32C7.52835 56.0416 6.90611 54.4712 5.78746 53.3527C4.66865 52.2341 3.09777 51.612 0.818735 51.0951C3.09777 50.5783 4.66864 49.9562 5.78744 48.8377C6.90613 47.7193 7.52837 46.149 8.04529 43.8708C8.56172 46.1487 9.18379 47.7189 10.3023 48.8373Z" fill="white" stroke="black"/>
<path d="M70.7617 35.2164L39.9352 71.9962L9.09747 35.2202L70.7617 35.2164Z" fill="#26A9E0"/>
<path d="M10.1692 35.7239L69.6901 35.7202L39.9351 71.2217L10.1692 35.7239Z" stroke="black"/>
<path d="M19.708 37.6124C32.6259 54.0341 28.9249 49.1674 33.7644 55.315" stroke="#0D0C22" stroke-linecap="round"/>
<path d="M37.0485 58.8254L40.3998 62.9954" stroke="#0D0C22" stroke-linecap="round"/>
<path d="M35.7366 0.5H44.1225C45.2858 0.5 46.2011 1.49373 46.1055 2.65316L43.2101 37.7975C43.1251 38.8296 42.2626 39.6239 41.2271 39.6239H38.632C37.5964 39.6239 36.734 38.8296 36.6489 37.7975L33.7535 2.65315C33.658 1.49373 34.5732 0.5 35.7366 0.5Z" fill="#F34A57"/>
<path d="M35.7366 0.5H44.1225C45.2858 0.5 46.2011 1.49373 46.1055 2.65316L43.2101 37.7975C43.1251 38.8296 42.2626 39.6239 41.2271 39.6239H38.632C37.5964 39.6239 36.734 38.8296 36.6489 37.7975L33.7535 2.65315C33.658 1.49373 34.5732 0.5 35.7366 0.5Z" fill="url(#paint0_linear_125_5541)"/>
<path d="M35.7366 0.5H44.1225C45.2858 0.5 46.2011 1.49373 46.1055 2.65316L43.2101 37.7975C43.1251 38.8296 42.2626 39.6239 41.2271 39.6239H38.632C37.5964 39.6239 36.734 38.8296 36.6489 37.7975L33.7535 2.65315C33.658 1.49373 34.5732 0.5 35.7366 0.5Z" stroke="black"/>
<rect x="36.041" y="43.1317" width="7.7771" height="7.77711" rx="3.88855" fill="#F34A57" stroke="black"/>
<path d="M41.4767 3.07477C38.5712 2.74507 36.5167 3.05876 36.6295 4.64856C37.0072 9.96791 37.8256 19.3161 37.8256 19.3161" stroke="#0D0C22" stroke-linecap="round"/>
<path d="M38.1727 22.4896L38.4866 26.4925" stroke="#0D0C22" stroke-linecap="round"/>
<path d="M63.6435 24.6217C65.2526 26.2307 67.5752 27.074 71.0977 27.811C67.5752 28.5479 65.2526 29.391 63.6435 30.9999C62.0347 32.6087 61.1915 34.9307 60.4554 38.4527C59.7185 34.9307 58.8751 32.6087 57.2661 30.9999C55.6569 29.391 53.3343 28.5479 49.8115 27.811C53.3343 27.0741 55.6569 26.231 57.2661 24.6222C58.8751 23.0136 59.7185 20.6918 60.4554 17.1701C61.1915 20.6913 62.0347 23.013 63.6435 24.6217Z" fill="white" stroke="black"/>
</g>
<defs>
<linearGradient id="paint0_linear_125_5541" x1="39.9295" y1="5.62978e-08" x2="42.6591" y2="31.8023" gradientUnits="userSpaceOnUse">
<stop stop-color="#FFC808"/>
<stop offset="1" stop-color="#F34A57"/>
</linearGradient>
<clipPath id="clip0_125_5541">
<rect width="72" height="72" fill="white"/>
</clipPath>
</defs>
</svg>
